<svg width="51" height="58" viewBox="0 0 51 58" fill="none" xmlns="http://www.w3.org/2000/svg">
<g clip-path="url(#clip0_13_38)">
<path d="M45.5357 3.625H5.46429C4.01507 3.625 2.6252 4.19788 1.60045 5.21761C0.5757 6.23734 0 7.62039 0 9.0625L0 48.9375C0 50.3796 0.5757 51.7627 1.60045 52.7824C2.6252 53.8021 4.01507 54.375 5.46429 54.375H21.0887V37.1211H13.9169V29H21.0887V22.8103C21.0887 15.7699 25.3008 11.8809 31.7521 11.8809C34.8417 11.8809 38.0724 12.4292 38.0724 12.4292V19.3394H34.5127C31.0053 19.3394 29.9113 21.5053 29.9113 23.7268V29H37.7411L36.4889 37.1211H29.9113V54.375H45.5357C46.9849 54.375 48.3748 53.8021 49.3995 52.7824C50.4243 51.7627 51 50.3796 51 48.9375V9.0625C51 7.62039 50.4243 6.23734 49.3995 5.21761C48.3748 4.19788 46.9849 3.625 45.5357 3.625Z" fill="#1E1E1E"/>
</g>
<defs>
<clipPath id="clip0_13_38">
<rect width="51" height="58" fill="white"/>
</clipPath>
</defs>
</svg>
