<svg width="64" height="64" viewBox="0 0 64 64" fill="none" xmlns="http://www.w3.org/2000/svg">
<path d="M32.0001 32C36.9948 32 41.5201 33.6533 44.8401 35.9653C47.9948 38.1653 50.6667 41.4347 50.6667 44.952C50.6667 46.8827 49.8428 48.4827 48.5441 49.672C47.3228 50.7947 45.7281 51.5227 44.0854 52.0187C40.8027 53.0133 36.4801 53.3333 32.0001 53.3333C27.5201 53.3333 23.1974 53.0133 19.9147 52.0187C18.2721 51.5227 16.6774 50.7947 15.4534 49.672C14.1601 48.4853 13.3334 46.8853 13.3334 44.9547C13.3334 41.4373 16.0054 38.168 19.1601 35.968C22.4801 33.6533 27.0054 32 32.0001 32ZM50.6667 34.6667C53.4507 34.6667 55.9788 35.5867 57.8481 36.888C59.5548 38.08 61.3334 40.0613 61.3334 42.4773C61.3334 43.856 60.7334 45 59.8401 45.8187C59.0241 46.568 58.0161 47.008 57.0961 47.2853C55.8427 47.664 54.3627 47.8587 52.8267 47.944C53.1521 47.024 53.3334 46.024 53.3334 44.952C53.3334 40.8587 50.7761 37.3813 47.9147 34.968C48.8185 34.7684 49.7412 34.6673 50.6667 34.6667ZM13.3334 34.6667C14.2881 34.6702 15.2054 34.7707 16.0854 34.968C13.2267 37.3813 10.6667 40.8587 10.6667 44.952C10.6667 46.024 10.8481 47.024 11.1734 47.944C9.63742 47.8587 8.16008 47.664 6.90408 47.2853C5.98408 47.008 4.97608 46.568 4.15742 45.8187C3.68815 45.3983 3.31284 44.8836 3.05598 44.3083C2.79912 43.733 2.66649 43.11 2.66675 42.48C2.66675 40.0667 4.44275 38.0827 6.15208 36.8907C8.26637 35.4412 10.77 34.6659 13.3334 34.6667ZM49.3334 18.6667C51.1015 18.6667 52.7972 19.369 54.0475 20.6193C55.2977 21.8695 56.0001 23.5652 56.0001 25.3333C56.0001 27.1014 55.2977 28.7971 54.0475 30.0474C52.7972 31.2976 51.1015 32 49.3334 32C47.5653 32 45.8696 31.2976 44.6194 30.0474C43.3691 28.7971 42.6667 27.1014 42.6667 25.3333C42.6667 23.5652 43.3691 21.8695 44.6194 20.6193C45.8696 19.369 47.5653 18.6667 49.3334 18.6667ZM14.6667 18.6667C16.4349 18.6667 18.1306 19.369 19.3808 20.6193C20.631 21.8695 21.3334 23.5652 21.3334 25.3333C21.3334 27.1014 20.631 28.7971 19.3808 30.0474C18.1306 31.2976 16.4349 32 14.6667 32C12.8986 32 11.2029 31.2976 9.9527 30.0474C8.70246 28.7971 8.00008 27.1014 8.00008 25.3333C8.00008 23.5652 8.70246 21.8695 9.9527 20.6193C11.2029 19.369 12.8986 18.6667 14.6667 18.6667ZM32.0001 8C34.8291 8 37.5422 9.12381 39.5426 11.1242C41.5429 13.1246 42.6667 15.8377 42.6667 18.6667C42.6667 21.4956 41.5429 24.2087 39.5426 26.2091C37.5422 28.2095 34.8291 29.3333 32.0001 29.3333C29.1711 29.3333 26.458 28.2095 24.4576 26.2091C22.4572 24.2087 21.3334 21.4956 21.3334 18.6667C21.3334 15.8377 22.4572 13.1246 24.4576 11.1242C26.458 9.12381 29.1711 8 32.0001 8Z" fill="#475531"/>
</svg>
