<svg width="50" height="58" viewBox="0 0 50 58" fill="none" xmlns="http://www.w3.org/2000/svg">
<g clip-path="url(#clip0_13_36)">
<path d="M25 22.9576C23.8227 22.958 22.6719 23.3128 21.6932 23.977C20.7145 24.6412 19.9519 25.5851 19.5016 26.6892C19.0514 27.7934 18.9338 29.0082 19.1638 30.1802C19.3937 31.3522 19.9609 32.4286 20.7935 33.2734C21.6262 34.1183 22.6869 34.6935 23.8417 34.9265C24.9964 35.1595 26.1932 35.0397 27.2809 34.5823C28.3686 34.1249 29.2982 33.3504 29.9522 32.3568C30.6063 31.3631 30.9554 30.195 30.9554 29C30.9542 27.3974 30.3263 25.8609 29.2096 24.7279C28.093 23.5949 26.5789 22.9582 25 22.9576ZM38.9185 18.313C38.6155 17.5335 38.1578 16.8255 37.574 16.2329C36.9902 15.6403 36.2926 15.1758 35.5246 14.8682C33.1808 13.9291 27.6004 14.1398 25 14.1398C22.3996 14.1398 16.8248 13.9211 14.4743 14.8682C13.7063 15.1758 13.0087 15.6403 12.4249 16.2329C11.8411 16.8255 11.3834 17.5335 11.0804 18.313C10.1562 20.692 10.3627 26.3617 10.3627 28.9989C10.3627 31.6361 10.1562 37.299 11.0848 39.6858C11.3879 40.4654 11.8455 41.1734 12.4294 41.766C13.0132 42.3586 13.7108 42.8231 14.4788 43.1307C16.8225 44.0698 22.4029 43.8591 25.0045 43.8591C27.606 43.8591 33.1786 44.0777 35.529 43.1307C36.2971 42.8231 36.9946 42.3586 37.5785 41.766C38.1623 41.1734 38.6199 40.4654 38.923 39.6858C39.8549 37.3069 39.6406 31.6372 39.6406 29C39.6406 26.3628 39.8549 20.701 38.923 18.3142L38.9185 18.313ZM25 38.2891C23.1899 38.2891 21.4205 37.7443 19.9155 36.7236C18.4105 35.7029 17.2375 34.2521 16.5449 32.5548C15.8522 30.8574 15.6709 28.9897 16.0241 27.1878C16.3772 25.3859 17.2488 23.7307 18.5287 22.4316C19.8086 21.1325 21.4393 20.2478 23.2146 19.8894C24.9898 19.531 26.83 19.715 28.5022 20.418C30.1745 21.1211 31.6038 22.3117 32.6094 23.8393C33.615 25.3669 34.1518 27.1628 34.1518 29C34.1533 30.2203 33.9175 31.4289 33.4581 32.5565C32.9987 33.6842 32.3247 34.7088 31.4746 35.5717C30.6245 36.4346 29.615 37.1187 28.504 37.585C27.393 38.0513 26.2022 38.2906 25 38.2891ZM34.529 21.4895C34.1065 21.4897 33.6934 21.3627 33.3419 21.1246C32.9905 20.8865 32.7165 20.5479 32.5547 20.1518C32.3928 19.7556 32.3504 19.3196 32.4327 18.8989C32.5149 18.4783 32.7183 18.0918 33.017 17.7885C33.3157 17.4852 33.6963 17.2785 34.1107 17.1948C34.5252 17.111 34.9547 17.1539 35.3451 17.318C35.7355 17.4821 36.0692 17.76 36.304 18.1165C36.5387 18.4731 36.6641 18.8924 36.6641 19.3212C36.6652 19.6061 36.611 19.8883 36.5045 20.1518C36.3979 20.4153 36.2412 20.6548 36.0433 20.8567C35.8453 21.0585 35.6101 21.2187 35.351 21.3281C35.0919 21.4375 34.8141 21.4938 34.5335 21.494L34.529 21.4895ZM44.6429 3.625H5.35714C3.93634 3.625 2.57373 4.19788 1.56907 5.21761C0.564412 6.23734 0 7.62039 0 9.0625L0 48.9375C0 50.3796 0.564412 51.7627 1.56907 52.7824C2.57373 53.8021 3.93634 54.375 5.35714 54.375H44.6429C46.0637 54.375 47.4263 53.8021 48.4309 52.7824C49.4356 51.7627 50 50.3796 50 48.9375V9.0625C50 7.62039 49.4356 6.23734 48.4309 5.21761C47.4263 4.19788 46.0637 3.625 44.6429 3.625ZM42.7321 36.4766C42.5882 39.38 41.9353 41.9526 39.8471 44.0664C37.7589 46.1802 35.2266 46.8565 32.3694 46.9947C29.4219 47.1635 20.5848 47.1635 17.6373 46.9947C14.7768 46.8486 12.2511 46.1848 10.1596 44.0664C8.06808 41.948 7.41071 39.3743 7.27455 36.4766C7.10826 33.4837 7.10826 24.5129 7.27455 21.5234C7.41853 18.62 8.06362 16.0474 10.1596 13.9336C12.2556 11.8198 14.7879 11.1514 17.6373 11.0132C20.5848 10.8444 29.4219 10.8444 32.3694 11.0132C35.2299 11.1593 37.7634 11.8232 39.8471 13.9415C41.9308 16.0599 42.596 18.6336 42.7321 21.537C42.8984 24.5186 42.8984 33.4814 42.7321 36.4766Z" fill="#1E1E1E"/>
</g>
<defs>
<clipPath id="clip0_13_36">
<rect width="50" height="58" fill="white"/>
</clipPath>
</defs>
</svg>
