<svg width="147" height="117" viewBox="0 0 147 117" fill="none" xmlns="http://www.w3.org/2000/svg">
<path d="M0.499801 10.8371L65.731 75.7429C67.6608 77.6641 70.2384 78.8047 72.9648 78.9438C75.6913 79.083 78.3726 78.2108 80.4899 76.4961L81.3277 75.7429L146.515 10.881C146.726 11.6854 146.868 12.5068 146.941 13.3453L147 14.625V102.375C147.001 106.065 145.601 109.619 143.079 112.324C140.557 115.029 137.101 116.687 133.402 116.963L132.3 117H14.7C10.9914 117.001 7.41934 115.608 4.69997 113.099C1.98061 110.59 0.314898 107.151 0.0367508 103.472L0 102.375V14.625C0 13.7475 0.0734998 12.8944 0.2205 12.0656L0.499801 10.8371ZM132.3 0C133.192 0 134.062 0.0755635 134.909 0.226689L136.159 0.511876L73.5367 62.8144L10.8927 0.497249C11.7061 0.277874 12.5391 0.131624 13.3917 0.0584992L14.7 0H132.3Z" fill="#1E1E1E"/>
</svg>
