<svg width="64" height="64" viewBox="0 0 64 64" fill="none" xmlns="http://www.w3.org/2000/svg">
<path d="M38.4266 6.11476C41.009 6.75654 43.4809 7.78122 45.76 9.15476C46.2167 9.43038 46.5803 9.83665 46.8037 10.3211C47.0271 10.8055 47.1001 11.3458 47.0133 11.8721C46.712 13.7094 47.168 15.1148 48.0266 15.9734C48.8853 16.8321 50.2933 17.2881 52.128 16.9868C52.6543 16.8999 53.1946 16.9729 53.679 17.1963C54.1634 17.4198 54.5697 17.7834 54.8453 18.2401C56.2188 20.5192 57.2435 22.991 57.8853 25.5734C58.0141 26.0917 57.9843 26.6366 57.7998 27.1377C57.6153 27.6389 57.2847 28.0731 56.8506 28.3841C55.3386 29.4694 54.664 30.7841 54.664 32.0001C54.664 33.2161 55.3386 34.5334 56.8506 35.6188C57.2842 35.9296 57.6145 36.3634 57.799 36.8639C57.9834 37.3645 58.0135 37.9089 57.8853 38.4268C57.2435 41.0092 56.2188 43.481 54.8453 45.7601C54.5697 46.2168 54.1634 46.5804 53.679 46.8038C53.1946 47.0273 52.6543 47.1003 52.128 47.0134C50.2906 46.7121 48.8853 47.1708 48.0266 48.0268C47.168 48.8854 46.712 50.2934 47.0133 52.1281C47.1007 52.6548 47.028 53.1957 46.8045 53.6807C46.5811 54.1656 46.2172 54.5723 45.76 54.8481C43.4809 56.2216 41.009 57.2463 38.4266 57.8881C37.9084 58.0169 37.3634 57.9871 36.8623 57.8026C36.3612 57.6182 35.927 57.2875 35.616 56.8534C34.5306 55.3388 33.216 54.6668 32 54.6668C30.784 54.6668 29.4666 55.3388 28.3813 56.8534C28.0704 57.287 27.6367 57.6173 27.1361 57.8018C26.6355 57.9862 26.0911 58.0163 25.5733 57.8881C22.9909 57.2463 20.519 56.2216 18.24 54.8481C17.7827 54.5723 17.4188 54.1656 17.1954 53.6807C16.9719 53.1957 16.8992 52.6548 16.9866 52.1281C17.288 50.2934 16.8293 48.8881 15.9733 48.0294C15.112 47.1708 13.7066 46.7121 11.872 47.0161C11.3452 47.1035 10.8043 47.0308 10.3194 46.8073C9.83445 46.5839 9.42775 46.22 9.15196 45.7628C7.77793 43.482 6.75323 41.0084 6.11196 38.4241C5.98376 37.9063 6.01382 37.3619 6.19827 36.8613C6.38272 36.3607 6.71307 35.927 7.14662 35.6161C8.66129 34.5334 9.33329 33.2161 9.33329 32.0001C9.33329 30.7868 8.66129 29.4668 7.14662 28.3841C6.71307 28.0732 6.38272 27.6395 6.19827 27.1389C6.01382 26.6383 5.98376 26.0939 6.11196 25.5761C6.75348 22.9927 7.77817 20.52 9.15196 18.2401C9.42775 17.7829 9.83445 17.419 10.3194 17.1955C10.8043 16.9721 11.3452 16.8993 11.872 16.9868C13.7066 17.2881 15.112 16.8321 15.9706 15.9734C16.8293 15.1148 17.288 13.7068 16.984 11.8721C16.8971 11.3458 16.9701 10.8055 17.1935 10.3211C17.417 9.83665 17.7805 9.43038 18.2373 9.15476C20.5172 7.78098 22.9899 6.75629 25.5733 6.11476C26.0911 5.98656 26.6355 6.01663 27.1361 6.20108C27.6367 6.38553 28.0704 6.71588 28.3813 7.14943C29.4666 8.66143 30.784 9.3361 32 9.3361C33.216 9.3361 34.5333 8.66143 35.616 7.14943C35.9268 6.71588 36.3606 6.38553 36.8611 6.20108C37.3617 6.01663 37.9088 5.98656 38.4266 6.11476ZM32 18.6668C28.4637 18.6668 25.0723 20.0715 22.5719 22.572C20.0714 25.0725 18.6666 28.4639 18.6666 32.0001C18.6666 35.5363 20.0714 38.9277 22.5719 41.4282C25.0723 43.9287 28.4637 45.3334 32 45.3334C35.5362 45.3334 38.9276 43.9287 41.428 41.4282C43.9285 38.9277 45.3333 35.5363 45.3333 32.0001C45.3333 28.4639 43.9285 25.0725 41.428 22.572C38.9276 20.0715 35.5362 18.6668 32 18.6668ZM32 24.0001C34.1217 24.0001 36.1565 24.843 37.6568 26.3432C39.1571 27.8435 40 29.8784 40 32.0001C40 34.1218 39.1571 36.1567 37.6568 37.657C36.1565 39.1572 34.1217 40.0001 32 40.0001C29.8782 40.0001 27.8434 39.1572 26.3431 37.657C24.8428 36.1567 24 34.1218 24 32.0001C24 29.8784 24.8428 27.8435 26.3431 26.3432C27.8434 24.843 29.8782 24.0001 32 24.0001Z" fill="#475531"/>
</svg>
