<svg width="64" height="64" viewBox="0 0 64 64" fill="none" xmlns="http://www.w3.org/2000/svg">
<path fill-rule="evenodd" clip-rule="evenodd" d="M37.896 47.4026C39.2823 46.7095 40.803 46.3268 42.3522 46.2812C43.9014 46.2356 45.442 46.5282 46.8666 47.1386L47.4373 47.4053L54.5253 50.9466C55.1341 51.2506 55.6037 51.7758 55.8379 52.4148C56.0721 53.0538 56.0531 53.7581 55.7849 54.3835C55.5166 55.0089 55.0194 55.5081 54.3951 55.7789C53.7708 56.0497 53.0665 56.0715 52.4266 55.8399L52.1413 55.7173L45.0506 52.1733C44.3857 51.8408 43.6586 51.6511 42.9161 51.6162C42.1735 51.5813 41.4318 51.702 40.7386 51.9706L40.28 52.1733L36.7706 53.9306C35.3838 54.6237 33.8625 55.0061 32.3128 55.0512C30.7631 55.0963 29.2221 54.8031 27.7973 54.1919L27.2293 53.9306L23.7173 52.1733C23.0524 51.8408 22.3253 51.6511 21.5827 51.6162C20.8401 51.5813 20.0985 51.702 19.4053 51.9706L18.9466 52.1733L11.8586 55.7199C11.2497 56.0279 10.5459 56.0906 9.89208 55.8954C9.23826 55.7001 8.68418 55.2616 8.34387 54.6702C8.00356 54.0787 7.90292 53.3793 8.06267 52.7159C8.22242 52.0525 8.6304 51.4756 9.20263 51.1039L9.47463 50.9466L16.5626 47.4026C17.9489 46.7095 19.4696 46.3268 21.0189 46.2812C22.5681 46.2356 24.1086 46.5282 25.5333 47.1386L26.104 47.4053L29.6133 49.1599C30.2786 49.4927 31.0061 49.6827 31.7492 49.7176C32.4923 49.7525 33.2344 49.6316 33.928 49.3626L34.384 49.1599L37.896 47.4026ZM34.6666 5.33325C35.3739 5.33325 36.0522 5.6142 36.5523 6.1143C37.0523 6.6144 37.3333 7.29267 37.3333 7.99992V11.5199L46.2106 12.9973C47.4555 13.2055 48.5861 13.8485 49.4015 14.8118C50.2169 15.7752 50.6642 16.9965 50.664 18.2586V27.4106L56.1573 29.2399C56.5948 29.3859 56.9973 29.621 57.3392 29.9305C57.6812 30.24 57.9552 30.6171 58.1439 31.0379C58.3326 31.4587 58.432 31.9141 58.4357 32.3753C58.4394 32.8365 58.3473 33.2935 58.1653 33.7173L52.3813 47.2106L47.4373 44.7359C45.9561 43.9952 44.3227 43.6096 42.6666 43.6096C41.0105 43.6096 39.3772 43.9952 37.896 44.7359L34.384 46.4933C33.6434 46.8636 32.8267 47.0564 31.9986 47.0564C31.1706 47.0564 30.3539 46.8636 29.6133 46.4933L26.104 44.7359C24.6227 43.9952 22.9894 43.6096 21.3333 43.6096C19.6772 43.6096 18.0439 43.9952 16.5626 44.7359L13.176 46.4319L6.08797 34.0293C5.8433 33.6011 5.69669 33.1239 5.6587 32.6322C5.62072 32.1405 5.69232 31.6465 5.86833 31.1858C6.04434 30.7252 6.32037 30.3093 6.67654 29.9682C7.0327 29.627 7.46012 29.3692 7.92797 29.2133L13.3333 27.4106V18.2586C13.333 16.9965 13.7804 15.7752 14.5958 14.8118C15.4112 13.8485 16.5418 13.2055 17.7866 12.9973L26.6666 11.5199V7.99992C26.6666 7.29267 26.9476 6.6144 27.4477 6.1143C27.9478 5.6142 28.6261 5.33325 29.3333 5.33325H34.6666ZM32 16.0373L18.6666 18.2586V25.6346L30.312 21.7519C31.4068 21.3869 32.5905 21.3869 33.6853 21.7519L45.3333 25.6346V18.2586L32 16.0373Z" fill="#475531"/>
</svg>
