<svg width="109" height="131" viewBox="0 0 109 131" fill="none" xmlns="http://www.w3.org/2000/svg">
<path fill-rule="evenodd" clip-rule="evenodd" d="M0 10.9167C0 8.02139 1.14839 5.24469 3.19253 3.19742C5.23668 1.15015 8.00914 0 10.9 0H98.1C100.991 0 103.763 1.15015 105.807 3.19742C107.852 5.24469 109 8.02139 109 10.9167V25.4722C109 28.3675 107.852 31.1442 105.807 33.1915C103.763 35.2387 100.991 36.3889 98.1 36.3889C95.2091 36.3889 92.4367 35.2387 90.3925 33.1915C88.3484 31.1442 87.2 28.3675 87.2 25.4722V21.8333H65.4V109.167H69.0333C71.9242 109.167 74.6967 110.317 76.7408 112.364C78.7849 114.411 79.9333 117.188 79.9333 120.083C79.9333 122.979 78.7849 125.755 76.7408 127.803C74.6967 129.85 71.9242 131 69.0333 131H39.9667C37.0758 131 34.3033 129.85 32.2592 127.803C30.2151 125.755 29.0667 122.979 29.0667 120.083C29.0667 117.188 30.2151 114.411 32.2592 112.364C34.3033 110.317 37.0758 109.167 39.9667 109.167H43.6V21.8333H21.8V25.4722C21.8 28.3675 20.6516 31.1442 18.6075 33.1915C16.5633 35.2387 13.7909 36.3889 10.9 36.3889C8.00914 36.3889 5.23668 35.2387 3.19253 33.1915C1.14839 31.1442 0 28.3675 0 25.4722V10.9167Z" fill="#1E1E1E"/>
</svg>
