<svg width="64" height="64" viewBox="0 0 64 64" fill="none" xmlns="http://www.w3.org/2000/svg">
<path fill-rule="evenodd" clip-rule="evenodd" d="M32 8C32.5186 8.00027 33.0259 8.15177 33.4598 8.43595C33.8936 8.72013 34.2352 9.12466 34.4427 9.6L52.4107 50.6667H53.3333C54.0406 50.6667 54.7189 50.9476 55.219 51.4477C55.7191 51.9478 56 52.6261 56 53.3333C56 54.0406 55.7191 54.7189 55.219 55.219C54.7189 55.7191 54.0406 56 53.3333 56H10.6667C9.95942 56 9.28115 55.7191 8.78105 55.219C8.28095 54.7189 8 54.0406 8 53.3333C8 52.6261 8.28095 51.9478 8.78105 51.4477C9.28115 50.9476 9.95942 50.6667 10.6667 50.6667H11.5893L29.5573 9.6C29.7648 9.12466 30.1064 8.72013 30.5402 8.43595C30.9741 8.15177 31.4814 8.00027 32 8ZM25.576 32H38.424L36.088 26.6667H27.912L25.576 32ZM19.744 45.3333H44.256L41.9227 40H22.0773L19.744 45.3333Z" fill="#475531"/>
</svg>
