<svg width="51" height="58" viewBox="0 0 51 58" fill="none" xmlns="http://www.w3.org/2000/svg">
<path d="M7.28571 3.625C3.26719 3.625 0 6.87617 0 10.875V47.125C0 51.1238 3.26719 54.375 7.28571 54.375H43.7143C47.7328 54.375 51 51.1238 51 47.125V10.875C51 6.87617 47.7328 3.625 43.7143 3.625H7.28571ZM41.1074 13.1406L29.2908 26.5758L43.1906 44.8594H32.3076L23.7924 33.7691L14.0364 44.8594H8.62902L21.2652 30.484L7.9346 13.1406H19.0908L26.7978 23.2793L35.7 13.1406H41.1074ZM36.8042 41.6422L17.4629 16.1879H14.2413L33.7989 41.6422H36.7929H36.8042Z" fill="#1E1E1E"/>
</svg>
