<svg width="171" height="186" viewBox="0 0 171 186" fill="none" xmlns="http://www.w3.org/2000/svg">
<path d="M85.5 102.3C108.262 102.3 128.962 108.754 144.191 117.85C151.791 122.388 158.289 127.745 162.982 133.567C167.599 139.286 171 146.131 171 153.45C171 161.309 167.095 167.502 161.471 171.92C156.151 176.105 149.131 178.876 141.674 180.811C126.683 184.689 106.676 186 85.5 186C64.3245 186 44.3175 184.698 29.3265 180.811C21.869 178.876 14.8485 176.105 9.5285 171.92C3.895 167.493 0 161.309 0 153.45C0 146.131 3.401 139.286 8.018 133.557C12.711 127.745 19.1995 122.397 26.809 117.84C42.0375 108.763 62.7475 102.3 85.5 102.3ZM85.5 0C98.0978 0 110.18 4.89909 119.088 13.6195C127.996 22.34 133 34.1674 133 46.5C133 58.8326 127.996 70.66 119.088 79.3805C110.18 88.1009 98.0978 93 85.5 93C72.9022 93 60.8204 88.1009 51.9124 79.3805C43.0044 70.66 38 58.8326 38 46.5C38 34.1674 43.0044 22.34 51.9124 13.6195C60.8204 4.89909 72.9022 0 85.5 0Z" fill="#1E1E1E"/>
</svg>
